<?xml version="1.0" standalone="no"?>
<!DOCTYPE svg PUBLIC "-//W3C//DTD SVG 20010904//EN"
 "http://www.w3.org/TR/2001/REC-SVG-20010904/DTD/svg10.dtd">
<svg version="1.0" xmlns="http://www.w3.org/2000/svg"
 width="227.000000pt" height="227.000000pt" viewBox="0 0 227.000000 227.000000"
 preserveAspectRatio="xMidYMid meet">
<metadata>
Created by potrace 1.11, written by Peter Selinger 2001-2013
</metadata>
<g transform="translate(0.000000,227.000000) scale(0.100000,-0.100000)"
fill="#000000" stroke="none">
<path d="M945 2254 c-477 -84 -844 -454 -930 -937 -13 -78 -14 -284 -1 -363
38 -231 156 -458 326 -624 116 -114 220 -181 405 -261 22 -9 118 -37 156 -45
139 -28 375 -27 471 2 10 3 30 7 44 10 100 18 294 112 398 192 111 85 221 205
280 302 15 25 31 52 36 60 40 62 102 230 115 310 4 25 10 54 12 65 9 35 11
270 3 321 -16 95 -44 210 -59 242 -105 223 -160 305 -282 424 -144 141 -359
256 -544 292 -16 4 -41 9 -55 12 -57 13 -298 11 -375 -2z"/>
</g>
</svg>
