<?xml version="1.0" encoding="UTF-8" standalone="no"?>
<svg width="13px" height="13px" viewBox="0 0 13 13" version="1.1" xmlns="http://www.w3.org/2000/svg" xmlns:xlink="http://www.w3.org/1999/xlink">
    <!-- Generator: Sketch 39.1 (31720) - http://www.bohemiancoding.com/sketch -->
    <title>CLOSE</title>
    <desc>Created with Sketch.</desc>
    <defs></defs>
    <g id="Final-Designs" stroke="none" stroke-width="1" fill="none" fill-rule="evenodd">
        <g id="06.2-LOOK-DETAIL-REPORT---FILTER-OPTIONS" transform="translate(-63.000000, -451.000000)" stroke="#9B9B9B" stroke-width="0.3" fill="#9B9B9B">
            <g id="fitler-dropdown" transform="translate(25.000000, 153.000000)">
                <path d="M36.2552575,303.753412 C36.2552575,303.584539 36.380349,303.44764 36.5649346,303.44764 L43.4622887,303.44764 L43.4622887,296.564305 C43.4622887,296.393623 43.6033763,296.255257 43.7680605,296.255257 L44.4748763,296.255257 C44.6437494,296.255257 44.7806481,296.380095 44.7806481,296.564305 L44.7806481,303.44764 L51.6639832,303.44764 C51.8346655,303.44764 51.9730309,303.588728 51.9730309,303.753412 L51.9730309,304.460228 C51.9730309,304.629101 51.8481936,304.766 51.6639832,304.766 L44.7806481,304.766 L44.7806481,311.663354 C44.7806481,311.834384 44.6395605,311.973031 44.4748763,311.973031 L43.7680605,311.973031 C43.5991874,311.973031 43.4622887,311.847939 43.4622887,311.663354 L43.4622887,304.766 L36.5649346,304.766 C36.3939046,304.766 36.2552575,304.624912 36.2552575,304.460228 L36.2552575,303.753412 Z" id="CLOSE" transform="translate(44.114144, 304.114144) rotate(-315.000000) translate(-44.114144, -304.114144) "></path>
            </g>
        </g>
    </g>
</svg>