<?xml version="1.0" encoding="UTF-8" standalone="no"?>
<svg width="17px" height="16px" viewBox="0 0 17 16" version="1.1" xmlns="http://www.w3.org/2000/svg" xmlns:xlink="http://www.w3.org/1999/xlink">
    <!-- Generator: Sketch 39.1 (31720) - http://www.bohemiancoding.com/sketch -->
    <title>enter fullscreen</title>
    <desc>Created with Sketch.</desc>
    <defs></defs>
    <g id="Final-Designs" stroke="none" stroke-width="1" fill="none" fill-rule="evenodd">
        <g id="01.-HOME-DASHBOARD" transform="translate(-925.000000, -177.000000)" fill="#1D2F5E">
            <g id="FULLSCREEN" transform="translate(903.000000, 155.000000)">
                <g id="enter-fullscreen" transform="translate(22.000000, 22.000000)">
                    <g id="Group-2" transform="translate(9.000000, 0.000000)">
                        <g id="Group" transform="translate(1.825806, 0.000000)">
                            <path d="M4.83189677,5.3351393 C4.4468129,5.3351393 4.13512258,5.02521994 4.13512258,4.64232405 L4.13512258,0.757016129 C4.13512258,0.374120235 4.4468129,0.0642008798 4.83189677,0.0642008798 C5.21698065,0.0642008798 5.52867097,0.374120235 5.52867097,0.757016129 L5.52867097,4.64232405 C5.52867097,5.02521994 5.21698065,5.3351393 4.83189677,5.3351393 L4.83189677,5.3351393 Z" id="Shape"></path>
                            <path d="M4.83189677,1.44983138 L0.924387097,1.44983138 C0.539303226,1.44983138 0.227612903,1.13991202 0.227612903,0.757016129 C0.227612903,0.374120235 0.539303226,0.0642008798 0.924387097,0.0642008798 L4.83189677,0.0642008798 C5.21698065,0.0642008798 5.52867097,0.374120235 5.52867097,0.757016129 C5.52867097,1.13991202 5.21698065,1.44983138 4.83189677,1.44983138 L4.83189677,1.44983138 Z" id="Shape"></path>
                        </g>
                        <path d="M1.49228387,6.58636364 C1.31390968,6.58636364 1.13553548,6.51892962 0.999432258,6.38359971 C0.727225806,6.11340176 0.727225806,5.67461877 0.999432258,5.40395894 L6.16485161,0.267426686 C6.43705806,-0.00323313783 6.87788387,-0.00323313783 7.15009032,0.267426686 C7.42229677,0.537624633 7.42229677,0.976407625 7.15009032,1.24706745 L1.98513548,6.38313783 C1.84903226,6.51846774 1.67065806,6.58636364 1.49228387,6.58636364 L1.49228387,6.58636364 Z" id="Shape"></path>
                    </g>
                    <g id="Group-3" transform="translate(0.000000, 9.000000)">
                        <g id="Group" transform="translate(0.000000, 1.313783)">
                            <path d="M0.785496774,5.68616569 C0.400412903,5.68616569 0.0887225806,5.37624633 0.0887225806,4.99335044 L0.0887225806,1.10804252 C0.0887225806,0.725146628 0.400412903,0.415227273 0.785496774,0.415227273 C1.17058065,0.415227273 1.48227097,0.725146628 1.48227097,1.10804252 L1.48227097,4.99335044 C1.48227097,5.37624633 1.17058065,5.68616569 0.785496774,5.68616569 L0.785496774,5.68616569 Z" id="Shape"></path>
                            <path d="M4.69347097,5.68616569 L0.78596129,5.68616569 C0.400877419,5.68616569 0.0891870968,5.37624633 0.0891870968,4.99335044 C0.0891870968,4.61045455 0.400877419,4.30053519 0.78596129,4.30053519 L4.69347097,4.30053519 C5.07855484,4.30053519 5.39024516,4.61045455 5.39024516,4.99335044 C5.39024516,5.37624633 5.07809032,5.68616569 4.69347097,5.68616569 L4.69347097,5.68616569 Z" id="Shape"></path>
                        </g>
                        <path d="M0.785496774,6.99994868 C0.607122581,6.99994868 0.428748387,6.93251466 0.292645161,6.79718475 C0.0204387097,6.5269868 0.0204387097,6.08774194 0.292645161,5.81754399 L5.49104516,0.648680352 C5.76325161,0.378020528 6.20407742,0.378020528 6.47628387,0.648680352 C6.74849032,0.918878299 6.74849032,1.35812317 6.47628387,1.62832111 L1.27834839,6.79718475 C1.14224516,6.93251466 0.963870968,6.99994868 0.785496774,6.99994868 L0.785496774,6.99994868 Z" id="Shape"></path>
                    </g>
                </g>
            </g>
        </g>
    </g>
</svg>