<?xml version="1.0" encoding="UTF-8" standalone="no"?>
<svg width="16px" height="17px" viewBox="0 0 16 17" version="1.1" xmlns="http://www.w3.org/2000/svg" xmlns:xlink="http://www.w3.org/1999/xlink">
    <!-- Generator: Sketch 39.1 (31720) - http://www.bohemiancoding.com/sketch -->
    <title>exit fullscreen</title>
    <desc>Created with Sketch.</desc>
    <defs></defs>
    <g id="Final-Designs" stroke="none" stroke-width="1" fill="none" fill-rule="evenodd">
        <g id="Artboard" transform="translate(-1814.000000, -138.000000)" fill="#1D2F5E">
            <g id="Group-2" transform="translate(1792.000000, 116.000000)">
                <g id="exit-fullscreen" transform="translate(22.000000, 22.000000)">
                    <g id="Group" transform="translate(8.825806, 0.000000)">
                        <g id="Group-4" transform="translate(4.000000, 3.500000) scale(-1, -1) translate(-4.000000, -3.500000) ">
                            <path d="M6.83189677,5.3351393 C6.4468129,5.3351393 6.13512258,5.02521994 6.13512258,4.64232405 L6.13512258,0.757016129 C6.13512258,0.374120235 6.4468129,0.0642008798 6.83189677,0.0642008798 C7.21698065,0.0642008798 7.52867097,0.374120235 7.52867097,0.757016129 L7.52867097,4.64232405 C7.52867097,5.02521994 7.21698065,5.3351393 6.83189677,5.3351393 L6.83189677,5.3351393 Z" id="Shape"></path>
                            <path d="M6.83189677,1.44983138 L2.9243871,1.44983138 C2.53930323,1.44983138 2.2276129,1.13991202 2.2276129,0.757016129 C2.2276129,0.374120235 2.53930323,0.0642008798 2.9243871,0.0642008798 L6.83189677,0.0642008798 C7.21698065,0.0642008798 7.52867097,0.374120235 7.52867097,0.757016129 C7.52867097,1.13991202 7.21698065,1.44983138 6.83189677,1.44983138 L6.83189677,1.44983138 Z" id="Shape"></path>
                            <path d="M1.66647742,6.58636364 C1.48810323,6.58636364 1.30972903,6.51892962 1.17362581,6.38359971 C0.901419355,6.11340176 0.901419355,5.67461877 1.17362581,5.40395894 L6.33904516,0.267426686 C6.61125161,-0.00323313783 7.05207742,-0.00323313783 7.32428387,0.267426686 C7.59649032,0.537624633 7.59649032,0.976407625 7.32428387,1.24706745 L2.15932903,6.38313783 C2.02322581,6.51846774 1.84485161,6.58636364 1.66647742,6.58636364 L1.66647742,6.58636364 Z" id="Shape"></path>
                        </g>
                    </g>
                    <g id="Group-3" transform="translate(3.500000, 13.000000) scale(-1, -1) translate(-3.500000, -13.000000) translate(0.000000, 9.000000)">
                        <g id="Group" transform="translate(0.000000, 1.313783)">
                            <path d="M0.785496774,5.68616569 C0.400412903,5.68616569 0.0887225806,5.37624633 0.0887225806,4.99335044 L0.0887225806,1.10804252 C0.0887225806,0.725146628 0.400412903,0.415227273 0.785496774,0.415227273 C1.17058065,0.415227273 1.48227097,0.725146628 1.48227097,1.10804252 L1.48227097,4.99335044 C1.48227097,5.37624633 1.17058065,5.68616569 0.785496774,5.68616569 L0.785496774,5.68616569 Z" id="Shape"></path>
                            <path d="M4.69347097,5.68616569 L0.78596129,5.68616569 C0.400877419,5.68616569 0.0891870968,5.37624633 0.0891870968,4.99335044 C0.0891870968,4.61045455 0.400877419,4.30053519 0.78596129,4.30053519 L4.69347097,4.30053519 C5.07855484,4.30053519 5.39024516,4.61045455 5.39024516,4.99335044 C5.39024516,5.37624633 5.07809032,5.68616569 4.69347097,5.68616569 L4.69347097,5.68616569 Z" id="Shape"></path>
                        </g>
                        <path d="M0.785496774,6.99994868 C0.607122581,6.99994868 0.428748387,6.93251466 0.292645161,6.79718475 C0.0204387097,6.5269868 0.0204387097,6.08774194 0.292645161,5.81754399 L5.49104516,0.648680352 C5.76325161,0.378020528 6.20407742,0.378020528 6.47628387,0.648680352 C6.74849032,0.918878299 6.74849032,1.35812317 6.47628387,1.62832111 L1.27834839,6.79718475 C1.14224516,6.93251466 0.963870968,6.99994868 0.785496774,6.99994868 L0.785496774,6.99994868 Z" id="Shape"></path>
                    </g>
                </g>
            </g>
        </g>
    </g>
</svg>