<svg id="Layer_1" data-name="Layer 1" xmlns="http://www.w3.org/2000/svg" viewBox="0 0 157.64 71.75"><defs><style>.cls-1,.cls-2{fill:none;stroke:#000;}.cls-1{stroke-opacity:0.05;stroke-width:2px;}.cls-2{stroke-miterlimit:10;stroke-opacity:0.4;opacity:0.6;}.cls-3{fill:#fff;}</style></defs><title>Artboard 1</title><path class="cls-1" d="M78.82,1C40,1,7.8,28.67,1.08,65.16a4.76,4.76,0,0,0,4.71,5.59H45.29a4.74,4.74,0,0,0,4.41-2.92,31.43,31.43,0,0,1,58.22,0,4.74,4.74,0,0,0,4.41,2.92h39.51a4.76,4.76,0,0,0,4.71-5.59C149.84,28.67,117.6,1,78.82,1Z"/><path class="cls-2" d="M156.46,66c-6.72-36.49-39.4-64-78.18-64S7.26,29.67.54,66.16"/><path class="cls-3" d="M0,0V71.75H157.64V0ZM151.86,70.75H112.34a4.74,4.74,0,0,1-4.41-2.92,31.43,31.43,0,0,0-58.22,0,4.74,4.74,0,0,1-4.41,2.92H5.79a4.76,4.76,0,0,1-4.71-5.59C7.8,28.67,40,1,78.82,1s71,27.67,77.74,64.16A4.76,4.76,0,0,1,151.86,70.75Z"/></svg>