<?xml version="1.0" encoding="UTF-8" standalone="no"?>
<svg width="20px" height="20px" viewBox="0 0 20 20" version="1.1" xmlns="http://www.w3.org/2000/svg" xmlns:xlink="http://www.w3.org/1999/xlink">
    <!-- Generator: Sketch 39.1 (31720) - http://www.bohemiancoding.com/sketch -->
    <title>search</title>
    <desc>Created with Sketch.</desc>
    <defs></defs>
    <g id="Final-Designs" stroke="none" stroke-width="1" fill="none" fill-rule="evenodd">
        <g id="05.1-STYLE-DETAIL-REPORT" transform="translate(-868.000000, -122.000000)" fill="#1D2F5E">
            <g id="OPTIONS-BAR" transform="translate(0.000000, 96.000000)">
                <g id="SEARCH" transform="translate(868.000000, 22.000000)">
                    <g id="search">
                        <path d="M14.4136638,17.3426766 L19.7777778,22.7407407 C19.9259259,22.8888889 20,23.0740741 20,23.2592593 C20,23.4444444 19.9259259,23.6296296 19.7777778,23.7777778 C19.6296296,23.9259259 19.4444444,24 19.2592593,24 C19.0740741,24 18.8888889,23.9259259 18.7777778,23.7777778 L13.3813307,18.3813307 C11.9630836,19.5750404 10.1357554,20.2962963 8.14814815,20.2962963 C3.66666667,20.2962963 0,16.6296296 0,12.1481481 C0,7.66666667 3.66666667,4 8.14814815,4 C12.6296296,4 16.2962963,7.66666667 16.2962963,12.1481481 C16.2962963,14.1177451 15.5880522,15.9299545 14.4136638,17.3426766 Z M8.14814815,18.8148148 C4.48148148,18.8148148 1.48148148,15.8148148 1.48148148,12.1481481 C1.48148148,8.48148148 4.48148148,5.48148148 8.14814815,5.48148148 C11.8148148,5.48148148 14.8148148,8.48148148 14.8148148,12.1481481 C14.8148148,15.8148148 11.8148148,18.8148148 8.14814815,18.8148148 L8.14814815,18.8148148 Z"></path>
                    </g>
                </g>
            </g>
        </g>
    </g>
</svg>